<svg xmlns="http://www.w3.org/2000/svg" x="0px" y="0px" width="100" height="100" viewBox="0,0,256,256">
<g fill="none" fill-rule="nonzero" stroke="none" stroke-width="1" stroke-linecap="butt" stroke-linejoin="miter" stroke-miterlimit="10" stroke-dasharray="" stroke-dashoffset="0" font-family="none" font-weight="none" font-size="none" text-anchor="none" style="mix-blend-mode: normal"><g transform="scale(2.56,2.56)"><path d="M25,30l3.645,47.383c0.2,2.605 2.372,4.617 4.985,4.617h32.74c2.613,0 4.785,-2.012 4.985,-4.617l3.645,-47.383" fill-opacity="0" fill="#f3ef29"></path><path d="M65,38v35c0,1.65 -1.35,3 -3,3c-1.65,0 -3,-1.35 -3,-3v-35c0,-1.65 1.35,-3 3,-3c1.65,0 3,1.35 3,3zM53,38v35c0,1.65 -1.35,3 -3,3c-1.65,0 -3,-1.35 -3,-3v-35c0,-1.65 1.35,-3 3,-3c1.65,0 3,1.35 3,3zM41,38v35c0,1.65 -1.35,3 -3,3c-1.65,0 -3,-1.35 -3,-3v-35c0,-1.65 1.35,-3 3,-3c1.65,0 3,1.35 3,3zM77,24h-4l-1.835,-3.058c-0.723,-1.205 -2.025,-1.942 -3.43,-1.942h-35.47c-1.405,0 -2.707,0.737 -3.43,1.942l-1.835,3.058h-4c-1.657,0 -3,1.343 -3,3c0,1.657 1.343,3 3,3h54c1.657,0 3,-1.343 3,-3c0,-1.657 -1.343,-3 -3,-3z" fill="#f15b6c"></path><path d="M66.37,83h-32.74c-3.116,0 -5.744,-2.434 -5.982,-5.54l-3.645,-47.383l1.994,-0.154l3.645,47.384c0.159,2.071 1.911,3.693 3.988,3.693h32.74c2.077,0 3.829,-1.622 3.988,-3.692l3.645,-47.385l1.994,0.154l-3.645,47.384c-0.239,3.105 -2.867,5.539 -5.982,5.539zM56,20c-0.552,0 -1,-0.447 -1,-1v-3c0,-0.552 -0.449,-1 -1,-1h-8c-0.551,0 -1,0.448 -1,1v3c0,0.553 -0.448,1 -1,1c-0.552,0 -1,-0.447 -1,-1v-3c0,-1.654 1.346,-3 3,-3h8c1.654,0 3,1.346 3,3v3c0,0.553 -0.448,1 -1,1z" fill="#fa5252"></path><path d="M77,31h-54c-2.206,0 -4,-1.794 -4,-4c0,-2.206 1.794,-4 4,-4h3.434l1.543,-2.572c0.898,-1.497 2.541,-2.428 4.288,-2.428h35.471c1.747,0 3.389,0.931 4.287,2.428l1.543,2.572h3.434c2.206,0 4,1.794 4,4c0,2.206 -1.794,4 -4,4zM23,25c-1.103,0 -2,0.897 -2,2c0,1.103 0.897,2 2,2h54c1.103,0 2,-0.897 2,-2c0,-1.103 -0.897,-2 -2,-2h-4c-0.351,0 -0.677,-0.185 -0.857,-0.485l-1.835,-3.058c-0.539,-0.898 -1.525,-1.457 -2.573,-1.457h-35.47c-1.048,0 -2.033,0.559 -2.572,1.457l-1.835,3.058c-0.181,0.3 -0.507,0.485 -0.858,0.485z" fill="#fa5252"></path><path d="M61.5,25h-36c-0.276,0 -0.5,-0.224 -0.5,-0.5c0,-0.276 0.224,-0.5 0.5,-0.5h36c0.276,0 0.5,0.224 0.5,0.5c0,0.276 -0.224,0.5 -0.5,0.5zM73.5,25h-5c-0.276,0 -0.5,-0.224 -0.5,-0.5c0,-0.276 0.224,-0.5 0.5,-0.5h5c0.276,0 0.5,0.224 0.5,0.5c0,0.276 -0.224,0.5 -0.5,0.5zM66.5,25h-2c-0.276,0 -0.5,-0.224 -0.5,-0.5c0,-0.276 0.224,-0.5 0.5,-0.5h2c0.276,0 0.5,0.224 0.5,0.5c0,0.276 -0.224,0.5 -0.5,0.5zM50,76c-1.654,0 -3,-1.346 -3,-3v-35c0,-1.654 1.346,-3 3,-3c1.654,0 3,1.346 3,3v25.5c0,0.276 -0.224,0.5 -0.5,0.5c-0.276,0 -0.5,-0.224 -0.5,-0.5v-25.5c0,-1.103 -0.897,-2 -2,-2c-1.103,0 -2,0.897 -2,2v35c0,1.103 0.897,2 2,2c1.103,0 2,-0.897 2,-2v-3.5c0,-0.276 0.224,-0.5 0.5,-0.5c0.276,0 0.5,0.224 0.5,0.5v3.5c0,1.654 -1.346,3 -3,3zM62,76c-1.654,0 -3,-1.346 -3,-3v-25.5c0,-0.276 0.224,-0.5 0.5,-0.5c0.276,0 0.5,0.224 0.5,0.5v25.5c0,1.103 0.897,2 2,2c1.103,0 2,-0.897 2,-2v-35c0,-1.103 -0.897,-2 -2,-2c-1.103,0 -2,0.897 -2,2v1.5c0,0.276 -0.224,0.5 -0.5,0.5c-0.276,0 -0.5,-0.224 -0.5,-0.5v-1.5c0,-1.654 1.346,-3 3,-3c1.654,0 3,1.346 3,3v35c0,1.654 -1.346,3 -3,3z" fill="#fa5252"></path><path d="M59.5,45c-0.276,0 -0.5,-0.224 -0.5,-0.5v-2c0,-0.276 0.224,-0.5 0.5,-0.5c0.276,0 0.5,0.224 0.5,0.5v2c0,0.276 -0.224,0.5 -0.5,0.5zM38,76c-1.654,0 -3,-1.346 -3,-3v-35c0,-1.654 1.346,-3 3,-3c1.654,0 3,1.346 3,3v35c0,1.654 -1.346,3 -3,3zM38,36c-1.103,0 -2,0.897 -2,2v35c0,1.103 0.897,2 2,2c1.103,0 2,-0.897 2,-2v-35c0,-1.103 -0.897,-2 -2,-2z" fill="#fa5252"></path></g></g>
</svg>